<svg xmlns="http://www.w3.org/2000/svg" width="1575.93" height="123" viewBox="0 0 1575.93 123"><defs><clipPath id="a"><path d="M29.07-133.994h-9.56a3.372 3.372 0 0 0-3.39 3.345v17.291a3.372 3.372 0 0 0 3.39 3.345h13.882a3.372 3.372 0 0 0 3.39-3.345V-125.8a3 3 0 0 0-.782-2.013l-4.712-5.2a3 3 0 0 0-2.218-.981zm1.776 2.883 3.322 3.663h-1.822a1.5 1.5 0 0 1-1.5-1.5v-2.163zm2.546 19.5H19.51a1.765 1.765 0 0 1-1.775-1.752v-17.291a1.765 1.765 0 0 1 1.775-1.746h9.72v5.046a1.5 1.5 0 0 0 1.5 1.5h4.436v12.5a1.765 1.765 0 0 1-1.774 1.748z" transform="translate(-16.12 133.994)" fill="none"/></clipPath><clipPath id="b"><path d="M16-110h21v-24H16z" transform="translate(-16 134)" fill="none"/></clipPath><clipPath id="c"><path d="M20.467-125.467h8.373a.736.736 0 0 1 .736.736.736.736 0 0 1-.736.736h-8.373a.736.736 0 0 1-.736-.736.736.736 0 0 1 .736-.736z" transform="translate(-19.732 125.467)" fill="red"/></clipPath><clipPath id="d"><path d="M16-111.846h19.385V-134H16z" transform="translate(-16 134)" fill="red"/></clipPath><clipPath id="e"><path d="M32-30.16v-.64a3.2 3.2 0 0 0-3.2-3.2h-9.6a3.2 3.2 0 0 0-3.2 3.2v17.6a3.2 3.2 0 0 0 3.2 3.2h9.6a3.2 3.2 0 0 0 3.2-3.2v-.119a.96.96 0 0 0-.96-.96.96.96 0 0 0-.96.96v.119a1.28 1.28 0 0 1-1.28 1.28h-9.6a1.28 1.28 0 0 1-1.28-1.28v-17.6a1.28 1.28 0 0 1 1.28-1.28h9.6a1.28 1.28 0 0 1 1.28 1.28v.64a.96.96 0 0 0 .96.96.96.96 0 0 0 .96-.96zm0-.64a3.2 3.2 0 0 0-3.2-3.2h-9.6a3.2 3.2 0 0 0-3.2 3.2v17.6a3.2 3.2 0 0 0 3.2 3.2h9.6a3.2 3.2 0 0 0 3.2-3.2v-.119a.96.96 0 0 0-.96-.96.96.96 0 0 0-.96.96v.119a1.28 1.28 0 0 1-1.28 1.28h-9.6a1.28 1.28 0 0 1-1.28-1.28v-17.6a1.28 1.28 0 0 1 1.28-1.28h9.6a1.28 1.28 0 0 1 1.28 1.28v.64a.96.96 0 0 0 .96.96.96.96 0 0 0 .96-.96v-.64z" transform="translate(-16 34)" fill="none"/></clipPath><clipPath id="f"><path d="M16-10h25.6v-24H16z" transform="translate(-16 34)" fill="none"/></clipPath><clipPath id="g"><path d="M16-10h22.75v-24H16z" transform="translate(-16 34)" fill="none"/></clipPath></defs><path d="M0 0h1575.93v123H0z" fill="none"/><path d="m466.947 56.632 2.532-3.7a.9.9 0 0 0 .179-.485c0-.277-.222-.448-.593-.448h-5.472c-.371 0-.593.171-.593.447a.9.9 0 0 0 .179.484l2.532 3.7a.7.7 0 0 0 1.236 0z"/><path d="M168 44h32v32h-32z" fill="none"/><g transform="translate(-5043 5753)"><path d="M5230.889-5697.084a3.81 3.81 0 0 1-3.81 3.81 3.81 3.81 0 0 1-3.81-3.81 3.81 3.81 0 0 1 3.81-3.81 3.81 3.81 0 0 1 3.811 3.81zm0 0" fill="red"/><path d="M5227.424-5704.816a7.751 7.751 0 0 0-7.086 3.989 7.752 7.752 0 0 0 .375 8.123l4.892 7.241a1.778 1.778 0 0 0 1.472.78 1.778 1.778 0 0 0 1.471-.78l4.9-7.248a7.748 7.748 0 0 0 .535-7.816 7.749 7.749 0 0 0-6.559-4.289zm5.161 11.524-4.9 7.248a.738.738 0 0 1-.612.326.738.738 0 0 1-.612-.326l-4.89-7.243a6.692 6.692 0 0 1 1.062-8.814 6.693 6.693 0 0 1 8.877-.006 6.693 6.693 0 0 1 1.074 8.813zm0 0" fill="#4a4a4a" stroke="#4a4a4a" stroke-width=".7"/><rect width="16" height="1.5" rx=".75" transform="translate(5219 -5683)" fill="#4a4a4a"/></g><path d="M373 39h32v32h-32z" fill="none"/><path d="M389.121 55.932h.159a4.586 4.586 0 0 0 3.5-1.516c1.913-2.157 1.6-5.855 1.561-6.207a5.07 5.07 0 0 0-2.407-4.509 5.526 5.526 0 0 0-2.674-.7h-.085a5.534 5.534 0 0 0-2.674.681 5.074 5.074 0 0 0-2.44 4.528c-.035.353-.353 4.051 1.561 6.207a4.568 4.568 0 0 0 3.5 1.516zm-3.732-7.6v-.04c.164-3.563 2.694-3.946 3.777-3.946h.06c1.342.03 3.623.577 3.777 3.946a.1.1 0 0 0 0 .04c0 .035.353 3.414-1.228 5.194a3.257 3.257 0 0 1-2.56 1.064h-.05a3.247 3.247 0 0 1-2.555-1.064c-1.565-1.769-1.227-5.163-1.222-5.193z" fill="#333" stroke="#333" stroke-width=".3"/><path d="M399.413 62.065v-.139c-.03-.984-.094-3.285-2.251-4.021l-.05-.015a14.34 14.34 0 0 1-4.125-1.879.671.671 0 0 0-.77 1.1 15.48 15.48 0 0 0 4.538 2.072c1.158.413 1.287 1.65 1.322 2.783a1 1 0 0 0 0 .124 9.024 9.024 0 0 1-.1 1.536 19.843 19.843 0 0 1-17.529-.005 8.543 8.543 0 0 1-.1-1.536v-.124c.035-1.133.164-2.371 1.322-2.783a15.623 15.623 0 0 0 4.538-2.073.671.671 0 1 0-.77-1.1 14.185 14.185 0 0 1-4.125 1.879l-.05.015c-2.157.741-2.222 3.042-2.251 4.021a1 1 0 0 1 0 .124v.015a7.621 7.621 0 0 0 .253 2.251.638.638 0 0 0 .258.313 20.988 20.988 0 0 0 19.4 0 .665.665 0 0 0 .258-.313 8 8 0 0 0 .232-2.245z" fill="#333" stroke="#333" stroke-width=".3"/><path d="M391.75 61h3.362a.75.75 0 1 1 0 1.5h-3.362a.75.75 0 0 1 0-1.5z" fill="red"/><path d="M289 38h32v32h-32z" fill="none"/><path d="M298.585 46.9a1.7 1.7 0 1 1-1.7-1.7 1.7 1.7 0 0 1 1.7 1.7zm15.769 3.747a3.208 3.208 0 1 1-3.208-3.208 3.208 3.208 0 0 1 3.208 3.207zm0 0" fill="red"/><path d="m297.618 52.751 2.468-3.652a3.885 3.885 0 1 0-6.411.006l2.463 3.646a.9.9 0 0 0 1.48 0zm-1.047-.292-2.464-3.647a3.4 3.4 0 0 1-.147-3.576 3.363 3.363 0 1 1 5.693 3.573l-2.466 3.65a.372.372 0 0 1-.616 0zm0 0" fill="#333" stroke="#333" stroke-width=".5"/><path d="M311.437 44.136a6.527 6.527 0 0 0-5.652 10.2l4.12 6.1a1.5 1.5 0 0 0 2.478 0l4.123-6.1a6.525 6.525 0 0 0-5.069-10.2zm4.346 9.7-4.123 6.1a.621.621 0 0 1-1.031 0l-4.12-6.1a5.636 5.636 0 1 1 9.273-.006zm-4.528 8.757a.437.437 0 0 0-.437.437v.491a.656.656 0 0 1-.655.655h-6.439a.656.656 0 0 1-.655-.655v-3.785a1.53 1.53 0 0 0-1.529-1.529h-3.6a.656.656 0 0 1-.655-.655v-2.4a.437.437 0 0 0-.873 0v2.4a1.53 1.53 0 0 0 1.529 1.529h3.6a.656.656 0 0 1 .655.655v3.785a1.53 1.53 0 0 0 1.529 1.529h6.442a1.53 1.53 0 0 0 1.529-1.529v-.491a.437.437 0 0 0-.441-.437zm0 0" fill="#333" stroke="#333" stroke-width=".7"/><path d="M331 38h32v32h-32z" fill="none"/><path d="M336.035 51.369A2 2 0 0 1 338 49h18.18a2 2 0 0 1 1.966 2.369l-2.25 12A2 2 0 0 1 353.931 65h-13.68a2 2 0 0 1-1.966-1.631z" fill="none"/><path d="M338 50.7a.3.3 0 0 0-.294.355l2.25 12a.3.3 0 0 0 .3.245h13.68a.3.3 0 0 0 .3-.245l2.25-12a.3.3 0 0 0-.294-.355H338m0-1.7h18.18a2 2 0 0 1 1.966 2.369l-2.25 12A2 2 0 0 1 353.93 65h-13.68a2 2 0 0 1-1.966-1.631l-2.25-12A2 2 0 0 1 338 49z" fill="#333"/><path d="M342.591 53v-4.5a4.5 4.5 0 0 1 9 0V53" fill="none" stroke="#333" stroke-linecap="round" stroke-miterlimit="10" stroke-width="1.7"/><path d="M342.75 59h8.75a.75.75 0 0 1 0 1.5h-8.75a.75.75 0 1 1 0-1.5z" fill="red"/><path d="M415 39h32v32h-32z" fill="none"/><g transform="translate(-4886 5781)" fill="#333"><rect width="14" height="2.5" rx="1.25" transform="translate(5312 -5734)"/><rect width="18" height="2.5" rx="1.25" transform="translate(5308 -5727)"/><rect width="14" height="2.5" rx="1.25" transform="translate(5312 -5720)"/></g><path d="M247 39h32v32h-32z" fill="none"/><path d="M271.538 45h-17.076A3.465 3.465 0 0 0 251 48.462v12.923a3.465 3.465 0 0 0 3.462 3.462h17.076A3.465 3.465 0 0 0 275 61.385V48.462A3.465 3.465 0 0 0 271.538 45zm2.077 12h-5.077a2.077 2.077 0 0 1 0-4.154h5.077zm0-5.538h-5.077a3.462 3.462 0 1 0 0 6.924h5.077v3a2.079 2.079 0 0 1-2.077 2.077h-17.076a2.079 2.079 0 0 1-2.077-2.077V48.462a2.079 2.079 0 0 1 2.077-2.077h17.076a2.079 2.079 0 0 1 2.077 2.077v3z" fill="#333" stroke="#333" stroke-width=".3"/><path d="M260.5 61.5h-4.75a.75.75 0 1 1 0-1.5h4.75a.75.75 0 0 1 0 1.5z" fill="red"/><path d="M269.461 54.231h-.923a.693.693 0 1 0 0 1.385h.923a.693.693 0 1 0 0-1.385z" fill="red" stroke="red" stroke-width=".5"/><path d="M205 39h32v32h-32z" fill="none"/><path d="m230.324 49.334-6.06 6.059 6.06 6.06a2.308 2.308 0 1 1-3.263 3.264L221 58.658l-6.061 6.061a2.308 2.308 0 1 1-3.263-3.264l6.06-6.062-6.06-6.059a2.308 2.308 0 1 1 3.263-3.264L221 52.131l6.06-6.061a2.308 2.308 0 1 1 3.263 3.264z" fill="#4a4a4a" stroke="#fff" stroke-width="1.5"/><path d="M565 37h32v32h-32z" fill="none"/><path d="M580.633 57.088a1.258 1.258 0 1 0 1.258 1.258 1.258 1.258 0 0 0-1.258-1.258zm.212-9.527c-2.206 0-3.219 1.307-3.219 2.189a.937.937 0 0 0 .98.931c.882 0 .523-1.258 2.189-1.258.817 0 1.471.359 1.471 1.111 0 .882-.915 1.389-1.454 1.846a2.991 2.991 0 0 0-1.095 2.484c0 .85.229 1.1.9 1.1.8 0 .964-.359.964-.67a2.052 2.052 0 0 1 .915-2.042 4.182 4.182 0 0 0 1.83-2.99c0-1.534-1.39-2.7-3.481-2.7z" fill="red"/><path d="M581 41a11.993 11.993 0 0 0-12 12v11.063a.937.937 0 0 0 .938.937H581a12 12 0 1 0 0-24zm0 22.125h-10.125V53A10.125 10.125 0 1 1 581 63.125z" fill="#323232"/><path d="M608 39h32v32h-32z" fill="none"/><path d="M618.158 50.728h8.469a.488.488 0 0 0 0-.955h-8.469a.488.488 0 0 0 0 .955zm5.82 4.772h-5.727a.478.478 0 0 0 0 .955h5.727a.477.477 0 0 0 0-.955zm1.234-2.788h-6.932a.486.486 0 1 0 0 .955h6.932a.486.486 0 1 0 0-.955z" fill="red" stroke="red" stroke-width=".7"/><path d="M634.082 46.909c-.028 0-.054.007-.082.008v-.008A1.911 1.911 0 0 0 632.091 45h-17.182A1.911 1.911 0 0 0 613 46.909v18.614a.477.477 0 0 0 .3.441.472.472 0 0 0 .183.036.477.477 0 0 0 .337-.14l4.633-4.633h13.643A1.911 1.911 0 0 0 634 59.318V51.4l1.374-1.374a1.827 1.827 0 0 0-1.292-3.119zm-1.037 12.409a.955.955 0 0 1-.955.955h-13.84a.477.477 0 0 0-.337.14l-3.958 3.954V46.909a.955.955 0 0 1 .955-.955h17.181a.955.955 0 0 1 .955.955v.326a1.806 1.806 0 0 0-.255.209l-5.191 5.192c-.216.276-.547.413-.766.955l-.458 2.293a.477.477 0 0 0 .468.571.487.487 0 0 0 .093-.009l2.383-.479a.474.474 0 0 0 .244-.131l3.482-3.481zm-4.054-4.258-1.541.307.309-1.544 4.332-4.333 1.234 1.234zm5.709-5.707-.7.7-1.234-1.234.7-.7a.873.873 0 0 1 1.234 1.234z" fill="#323232" stroke="#323232" stroke-width=".7"/><path d="M646 37h32v32h-32z" fill="none"/><g style="isolation:isolate"><g transform="translate(652.18 41.009)" clip-path="url(#a)"><g transform="translate(-.18 -.009)" clip-path="url(#b)"><path d="M-7.32-7.491h35.662V31.49H-7.32z" fill="#323232"/></g></g><path d="M658.159 54.727h8.469a.488.488 0 0 0 0-.955h-8.469a.488.488 0 0 0 0 .955zm0-4h4.469a.488.488 0 0 0 0-.955h-4.469a.488.488 0 0 0 0 .955zm0 8h8.469a.488.488 0 0 0 0-.955h-8.469a.488.488 0 0 0 0 .955z" fill="red" stroke="red" stroke-width=".7"/><path d="M652 41h21v24h-21z" fill="none"/></g><path d="M527 37h32v32h-32z" fill="none"/><path d="M548.493 55.688h-2.5a1.243 1.243 0 0 0-1.242 1.242v1.92a1.243 1.243 0 0 0 1.242 1.242h2.5a1.243 1.243 0 0 0 1.242-1.242v-1.92a1.243 1.243 0 0 0-1.242-1.242zm.339 3.162a.34.34 0 0 1-.339.339h-2.5a.34.34 0 0 1-.339-.339v-1.92a.34.34 0 0 1 .339-.339h2.5a.34.34 0 0 1 .339.339z" fill="red" stroke="red" stroke-width=".5"/><path d="M555.017 49.306a.559.559 0 0 0-.08-.3l-3.651-6.42a.6.6 0 0 0-.522-.306h-16.046a.6.6 0 0 0-.522.306l-3.646 6.424a.608.608 0 0 0-.08.3 3.521 3.521 0 0 0 2.107 3.22v10.585a.6.6 0 0 0 .6.6H552.3a.6.6 0 0 0 .6-.6V52.6a.264.264 0 0 0-.005-.065 3.531 3.531 0 0 0 2.118-3.23zm-19.947-5.813h15.343l2.857 5.021h-21.049zm12.87 6.22a2.313 2.313 0 0 1-4.554 0zm-5.833 0a2.316 2.316 0 0 1-4.559 0zm-10.393 0h4.556a2.316 2.316 0 0 1-4.559 0zm8.868 12.8h-3.461v-6.5a.857.857 0 0 1 .858-.858h1.75a.857.857 0 0 1 .858.858v6.5zm11.12 0h-9.916v-6.5a2.065 2.065 0 0 0-2.061-2.061h-1.755a2.065 2.065 0 0 0-2.061 2.061v6.5h-2.129v-9.7c.07.005.14.005.211.005a3.517 3.517 0 0 0 2.919-1.546 3.518 3.518 0 0 0 5.838 0 3.508 3.508 0 0 0 5.828 0 3.517 3.517 0 0 0 2.919 1.555h.206v9.69zm-.202-10.889a2.312 2.312 0 0 1-2.277-1.906h4.559a2.326 2.326 0 0 1-2.282 1.9z" fill="#323232" stroke="#323232" stroke-width=".5"/><path d="M489 37h32v32h-32z" fill="none"/><g transform="translate(-8805 6580)"><path d="M9318.569-6532.148h-2.769a3.474 3.474 0 0 0 .2-1.146 3.455 3.455 0 0 0-3.451-3.451 3.5 3.5 0 0 0-2.5 1.081 3.542 3.542 0 0 0-1.1-2.347 3.82 3.82 0 0 0-2.631-.989 3.887 3.887 0 0 0-3.732 4.015 4.2 4.2 0 0 0 1.082 2.838h-2.942a2.73 2.73 0 0 0-2.727 2.727v3.967a.547.547 0 0 0 .546.544h.864v7.18a2.729 2.729 0 0 0 2.727 2.728h14.74a2.731 2.731 0 0 0 2.724-2.728v-7.181h1.147a.546.546 0 0 0 .545-.545v-3.966a2.73 2.73 0 0 0-2.723-2.729zm-6.026-3.5a2.362 2.362 0 0 1 2.357 2.358 2.446 2.446 0 0 1-.291 1.146h-4.556v-.952a.546.546 0 0 0 .073-.245 2.491 2.491 0 0 1 2.417-2.309zm-8.864.668a2.8 2.8 0 0 1 2.641-2.924 2.724 2.724 0 0 1 1.877.7 2.469 2.469 0 0 1 .764 1.861v3.2h-3.336v-.006a2.924 2.924 0 0 1-1.946-2.832zm-4.588 5.565a1.639 1.639 0 0 1 1.637-1.638h8.233v5.053h-9.87zm19.422 11.693a1.636 1.636 0 0 1-1.635 1.636h-14.741a1.638 1.638 0 0 1-1.637-1.636v-7.181h18.013zm1.692-8.273h-10.152v-5.057h8.516a1.637 1.637 0 0 1 1.636 1.637zm0 0" fill="#323232" stroke="#323232" stroke-width=".7"/><rect width="13" height="2" rx="1" transform="translate(9303 -6520)" fill="red"/></g><path d="M689 37h32v32h-32z" fill="none"/><g style="isolation:isolate"><path d="m715.968 62.025-1.854-8.725a1.3 1.3 0 0 0-1.267-1.113h-2.06a.444.444 0 1 0 0 .888h2.06a.433.433 0 0 1 .422.371l1.854 8.723a.456.456 0 0 1-.1.36.421.421 0 0 1-.326.157h-19.974a.423.423 0 0 1-.327-.157.456.456 0 0 1-.1-.36l1.859-8.723a.433.433 0 0 1 .422-.371h2.062a.444.444 0 1 0 0-.888h-2.062a1.3 1.3 0 0 0-1.266 1.113l-1.855 8.723a1.369 1.369 0 0 0 .283 1.08 1.266 1.266 0 0 0 .98.471H714.7a1.267 1.267 0 0 0 .98-.471 1.367 1.367 0 0 0 .287-1.08z" fill="#323232" stroke="#323232" stroke-width="1"/><path d="M704.713 57.519a.421.421 0 0 0 .318-.147c.214-.248 5.245-6.1 5.245-9.179a5.567 5.567 0 1 0-11.127 0c0 3.078 5.031 8.927 5.245 9.179a.421.421 0 0 0 .319.148zm0-14.211a4.8 4.8 0 0 1 4.708 4.885c0 2.117-3.146 6.333-4.708 8.21-1.564-1.877-4.708-6.092-4.708-8.211a4.8 4.8 0 0 1 4.708-4.885z" fill="#323232" stroke="#323232" stroke-width=".6"/><path d="M707.368 48.088a2.688 2.688 0 1 1-2.688-2.688 2.688 2.688 0 0 1 2.688 2.688zm0 0" fill="red"/><g transform="translate(699.936 58.353)" clip-path="url(#c)"><g transform="translate(-5.167 -11.815)" clip-path="url(#d)"><path d="M-1.756 4.892h22.917v15.317H-1.756z" fill="red"/></g></g></g><path d="M797 37h32v32h-32z" fill="none"/><path d="m824.014 48.151-3.391-5.407a.841.841 0 0 0-.713-.394h-14.24a.841.841 0 0 0-.713.394l-3.392 5.407a.843.843 0 0 0-.128.447V62.81a.841.841 0 0 0 .841.841H823.3a.841.841 0 0 0 .841-.841V48.6a.842.842 0 0 0-.129-.447zm-1.553 13.818h-19.342V48.844l3.018-4.815h13.31l3.014 4.815z" fill="#323232"/><path d="M816.014 57.765h-6.728a.841.841 0 0 0-.841.841v4.485h1.682v-3.644h5.046v3.644h1.682v-4.483a.841.841 0 0 0-.841-.843zm-4.065-14.577h1.682v5.606h-1.682z" fill="#323232"/><path d="M816.014 54.12h-6.728a.841.841 0 1 0 0 1.682h6.728a.841.841 0 0 0 0-1.682z" fill="red"/><path d="M802.278 47.953H823.3v1.682h-21.022z" fill="#323232"/><path d="M762 39h32v32h-32z" fill="none"/><g style="isolation:isolate"><g clip-path="url(#e)" transform="translate(767 43)"><g clip-path="url(#f)"><path d="M-8-8h32v40H-8z" fill="#323232"/></g></g><g clip-path="url(#g)" transform="translate(767 43)"><path d="M10 12h8.17m-.37-3.2 2.365 3.2m-.125.16L17.8 15.2" fill="none" stroke="red" stroke-linecap="round" stroke-width="2"/></g></g><path d="M727 39h32v32h-32z" fill="none"/><path d="M737.158 50.728h8.469a.488.488 0 0 0 0-.955h-8.469a.488.488 0 0 0 0 .955zm5.82 4.772h-5.727a.478.478 0 0 0 0 .955h5.727a.477.477 0 0 0 0-.955zm1.234-2.788h-6.932a.486.486 0 1 0 0 .955h6.932a.486.486 0 1 0 0-.955z" fill="red" stroke="red" stroke-width=".7"/><path d="M753 46.917v-.008A1.911 1.911 0 0 0 751.091 45h-17.182A1.911 1.911 0 0 0 732 46.909v18.614a.477.477 0 0 0 .3.441.472.472 0 0 0 .183.036.477.477 0 0 0 .337-.14l4.633-4.633h13.643A1.911 1.911 0 0 0 753 59.318V51.4s.028-4.484 0-4.483zm-.955 12.4a.955.955 0 0 1-.955.955h-13.84a.477.477 0 0 0-.337.14l-3.958 3.955V46.909a.955.955 0 0 1 .955-.955h17.181a.955.955 0 0 1 .955.955v12.409z" fill="#323232" stroke="#323232" stroke-width=".7"/><g transform="translate(-1176 -1804)"><circle cx="27.5" cy="27.5" r="27.5" transform="translate(1266 1831)" opacity=".15"/><path d="m1290.754 1853.006 5.188 5.188-5.188 5.188" fill="none" stroke="#000" stroke-linecap="round" stroke-linejoin="round" stroke-width="2"/></g><g transform="translate(-26 -1804)"><circle cx="27.5" cy="27.5" r="27.5" transform="translate(45 1831)" opacity=".15"/><path d="m75.246 1853.006-5.188 5.188 5.188 5.188" fill="none" stroke="#000" stroke-linecap="round" stroke-linejoin="round" stroke-width="2"/></g><g transform="rotate(-38 493.17 -1188.659)" fill="none" stroke="#666" stroke-linecap="round" stroke-linejoin="round" stroke-width="2"><circle cx="7.88" cy="7.88" r="7.88" stroke="none"/><circle cx="7.88" cy="7.88" r="6.88" fill="none"/></g><path d="m852.3 59.007 2.911 3.726" fill="none" stroke="#666" stroke-linecap="round" stroke-width="2"/><path d="M869 43h20v20h-20z" fill="none"/><path d="M877.942 60h2.57v-6.262h2l.325-2.488h-2.324v-1.723a1.4 1.4 0 0 1 .219-.877 1.27 1.27 0 0 1 1.012-.328h1.312v-2.215a13.544 13.544 0 0 0-1.919-.107 3.169 3.169 0 0 0-2.324.861 3.242 3.242 0 0 0-.875 2.42v1.969h-2.1v2.488h2.1z" fill="#292640" opacity=".8"/><path d="M898 43h20v20h-20z" fill="none"/><path d="M913.388 50.156a6.31 6.31 0 0 0 1.449-1.506 6.166 6.166 0 0 1-1.641.465 2.849 2.849 0 0 0 1.258-1.586 5.84 5.84 0 0 1-1.832.684 3.245 3.245 0 0 0-.943-.656 2.739 2.739 0 0 0-1.162-.246 2.773 2.773 0 0 0-1.422.383 2.81 2.81 0 0 0-1.039 1.056 2.848 2.848 0 0 0-.383 1.436 3.991 3.991 0 0 0 .055.656 8.065 8.065 0 0 1-5.907-3.01 2.787 2.787 0 0 0-.054 2.818 3.185 3.185 0 0 0 .93 1.039 2.7 2.7 0 0 1-1.286-.384v.055a2.753 2.753 0 0 0 .656 1.8 2.893 2.893 0 0 0 1.641 1.016 3.645 3.645 0 0 1-.766.082q-.246 0-.52-.027a2.855 2.855 0 0 0 1 1.408 2.671 2.671 0 0 0 1.682.561 5.692 5.692 0 0 1-3.583 1.23q-.384 0-.684-.028a8.271 8.271 0 0 0 8.859 0 7.808 7.808 0 0 0 2.762-3.09 8.107 8.107 0 0 0 .957-3.8 1.63 1.63 0 0 0-.027-.356z" fill="#292640" opacity=".8"/><path d="M929 43h20v20h-20z" fill="none"/><path d="M938.962 49.855a3.06 3.06 0 0 1 1.575.424 3.154 3.154 0 0 1 1.146 1.149 3.126 3.126 0 0 1 0 3.144 3.154 3.154 0 0 1-1.146 1.149 3.126 3.126 0 0 1-3.144 0 3.155 3.155 0 0 1-1.156-1.149 3.152 3.152 0 0 1 0-3.144 3.155 3.155 0 0 1 1.153-1.149 3.061 3.061 0 0 1 1.572-.424zm0 5.2a.844.844 0 1 1 0-.005zm4.02-5.332a.735.735 0 1 0-.739.739.666.666 0 0 0 .506-.219.852.852 0 0 0 .233-.524zm2.078.738q.027.766.027 2.543t-.041 2.557a5.161 5.161 0 0 1-.232 1.354 3.2 3.2 0 0 1-1.942 1.935 5.159 5.159 0 0 1-1.353.234q-.782.041-2.557.041t-2.557-.041a4.465 4.465 0 0 1-1.353-.26 2.915 2.915 0 0 1-1.19-.724 3.186 3.186 0 0 1-.752-1.19 5.157 5.157 0 0 1-.232-1.353q-.041-.78-.041-2.557t.041-2.557a5.156 5.156 0 0 1 .232-1.353 3.2 3.2 0 0 1 1.942-1.94 5.158 5.158 0 0 1 1.354-.232q.779-.041 2.557-.041t2.557.041a5.157 5.157 0 0 1 1.354.232 3.2 3.2 0 0 1 1.941 1.941 5.561 5.561 0 0 1 .245 1.366zm-1.313 6.148a5.76 5.76 0 0 0 .219-1.477q.027-.6.027-1.7v-.875q0-1.121-.027-1.7a5.483 5.483 0 0 0-.219-1.477 1.973 1.973 0 0 0-1.176-1.176 5.488 5.488 0 0 0-1.477-.219q-.6-.027-1.7-.027h-.869q-1.094 0-1.7.027a5.757 5.757 0 0 0-1.477.219 1.973 1.973 0 0 0-1.171 1.187 5.488 5.488 0 0 0-.219 1.477q-.027.6-.027 1.7v.875q0 1.094.027 1.7a5.757 5.757 0 0 0 .219 1.466 2.073 2.073 0 0 0 1.176 1.176 5.758 5.758 0 0 0 1.477.215q.6.027 1.7.027h.875q1.121 0 1.7-.027a5.487 5.487 0 0 0 1.466-.219 2.073 2.073 0 0 0 1.176-1.172z" fill="#292640" opacity=".8"/><path d="M958 43h20v20h-20z" fill="none"/><path d="M968.415 46.164a5.67 5.67 0 0 1 2.422.586 4.494 4.494 0 0 1 1.789 1.547 4.217 4.217 0 0 1 .711 2.392 7.117 7.117 0 0 1-.437 2.5 4.733 4.733 0 0 1-1.4 2.026 3.663 3.663 0 0 1-2.379.82 2.53 2.53 0 0 1-1.089-.26 1.67 1.67 0 0 1-.8-.725l-.219.875a17.643 17.643 0 0 1-.572 1.97 10.844 10.844 0 0 1-1.175 1.886l-.109.055-.083-.086-.027-.41q-.082-.762-.082-1.145a10.942 10.942 0 0 1 .273-2.133q.164-.766.547-2.27l.328-1.312a2.939 2.939 0 0 1-.273-1.367 2.053 2.053 0 0 1 .41-1.312 1.5 1.5 0 0 1 .875-.551 1.043 1.043 0 0 1 .9.191 1.143 1.143 0 0 1 .383.957 3.3 3.3 0 0 1-.109.793 6.724 6.724 0 0 1-.246.766 6.712 6.712 0 0 0-.246.766 3.216 3.216 0 0 0-.109.766 1.124 1.124 0 0 0 .369.861 1.262 1.262 0 0 0 .889.342 1.816 1.816 0 0 0 1.476-.762 4.061 4.061 0 0 0 .766-1.7 7.087 7.087 0 0 0 .219-1.723 2.815 2.815 0 0 0-.885-2.21 3.381 3.381 0 0 0-2.332-.797 3.968 3.968 0 0 0-1.955.492 3.551 3.551 0 0 0-1.381 1.34 3.8 3.8 0 0 0-.492 1.941 2.551 2.551 0 0 0 .164.9 3.048 3.048 0 0 0 .3.6 1.016 1.016 0 0 1 .164.355 1.8 1.8 0 0 1-.109.547q-.137.41-.3.41a1.192 1.192 0 0 1-.766-.369 2.84 2.84 0 0 1-.684-1 4.311 4.311 0 0 1-.3-1.634 4.4 4.4 0 0 1 .82-2.625 5.267 5.267 0 0 1 2.051-1.682 6.193 6.193 0 0 1 2.707-.615z" fill="#292640" opacity=".8"/><path d="M983 43h20v20h-20z" fill="none"/><path d="M1000.238 49.565a1.789 1.789 0 0 0-1.259-1.259 41.8 41.8 0 0 0-5.588-.306 43.436 43.436 0 0 0-5.588.294 1.826 1.826 0 0 0-1.259 1.271 20.207 20.207 0 0 0 0 6.87 1.79 1.79 0 0 0 1.259 1.259 41.882 41.882 0 0 0 5.588.306 43.435 43.435 0 0 0 5.588-.294 1.789 1.789 0 0 0 1.259-1.259 18.857 18.857 0 0 0 .294-3.435 17.9 17.9 0 0 0-.294-3.447zm-8.27 5.576v-4.282L995.685 53zm0 0" fill="#535166"/><path d="M1045 38h30v30h-30z" fill="none"/><path d="m1064.315 48.554-3.867-2.578a.645.645 0 0 0-.715 0l-3.867 2.578a.645.645 0 0 0 .715 1.072l.287-.191V53a.645.645 0 0 0 .645.645h5.156a.645.645 0 0 0 .645-.645v-3.565l.287.191a.645.645 0 0 0 .715-1.073zm-2.291 3.8h-3.867v-3.78l1.934-1.289 1.934 1.289z" fill="#fe817e"/><path d="M1060.09 42a7.1 7.1 0 0 0-7.09 7.09c0 4.1 3.921 9.394 6.631 12.14a.645.645 0 0 0 .918 0c2.749-2.786 6.631-8.065 6.631-12.14a7.1 7.1 0 0 0-7.09-7.09zm0 17.835c-1.445-1.583-5.8-6.691-5.8-10.745a5.8 5.8 0 1 1 11.6 0c0 4.05-4.356 9.162-5.8 10.745zm-3.867 2.876a.645.645 0 0 0 0 1.289h7.734a.645.645 0 0 0 0-1.289z" fill="#fe817e"/><path d="M1191 38h30v30h-30z" fill="none"/><path d="m1210.315 48.554-3.867-2.578a.645.645 0 0 0-.715 0l-3.867 2.578a.645.645 0 0 0 .715 1.072l.287-.191V53a.645.645 0 0 0 .645.645h5.156a.645.645 0 0 0 .645-.645v-3.565l.287.191a.645.645 0 0 0 .715-1.073zm-2.291 3.8h-3.867v-3.78l1.934-1.289 1.934 1.289z"/><path d="M1206.09 42a7.1 7.1 0 0 0-7.09 7.09c0 4.1 3.921 9.394 6.631 12.14a.645.645 0 0 0 .918 0c2.749-2.786 6.631-8.065 6.631-12.14a7.1 7.1 0 0 0-7.09-7.09zm0 17.835c-1.445-1.583-5.8-6.691-5.8-10.745a5.8 5.8 0 1 1 11.6 0c0 4.05-4.356 9.162-5.8 10.745zm-3.867 2.876a.645.645 0 0 0 0 1.289h7.734a.645.645 0 0 0 0-1.289z"/><path d="M1078 38h30v30h-30z" fill="none"/><g transform="translate(1082.573 42.573)" fill="#fe817e"><circle cx=".815" cy=".815" r=".815" transform="translate(14.907 7.739)"/><path d="M17.6 1.629h-1.064V.815a.815.815 0 1 0-1.629 0v.815H11.2V.815a.815.815 0 1 0-1.629 0v.815H5.906V.815a.815.815 0 0 0-1.629 0v.815H3.258A3.262 3.262 0 0 0 0 4.888V17.6a3.262 3.262 0 0 0 3.258 3.258H9.49a.815.815 0 1 0 0-1.629H3.258A1.631 1.631 0 0 1 1.629 17.6V4.888a1.631 1.631 0 0 1 1.629-1.63h1.019v.815a.815.815 0 1 0 1.629 0v-.815h3.665v.815a.815.815 0 1 0 1.629 0v-.815h3.706v.815a.815.815 0 1 0 1.629 0v-.815H17.6a1.631 1.631 0 0 1 1.629 1.629v4.644a.815.815 0 1 0 1.629 0V4.888A3.262 3.262 0 0 0 17.6 1.629z"/><path d="M15.925 11a4.928 4.928 0 1 0 4.928 4.928A4.928 4.928 0 0 0 15.925 11zm0 8.227a3.3 3.3 0 1 1 3.3-3.3 3.3 3.3 0 0 1-3.3 3.3z"/><path d="M17.111 15.111h-.367v-.855a.815.815 0 0 0-1.629 0v1.67a.815.815 0 0 0 .815.815h1.181a.815.815 0 0 0 0-1.629z"/><circle cx=".815" cy=".815" r=".815" transform="translate(11.364 7.739)"/><circle cx=".815" cy=".815" r=".815" transform="translate(7.82 11.282)"/><circle cx=".815" cy=".815" r=".815" transform="translate(4.277 7.739)"/><circle cx=".815" cy=".815" r=".815" transform="translate(4.277 11.282)"/><circle cx=".815" cy=".815" r=".815" transform="translate(4.277 14.826)"/><circle cx=".815" cy=".815" r=".815" transform="translate(7.82 14.826)"/><circle cx=".815" cy=".815" r=".815" transform="translate(7.82 7.739)"/></g><path d="M1224 38h30v30h-30z" fill="none"/><g transform="translate(1228.573 42.573)"><circle cx=".815" cy=".815" r=".815" transform="translate(14.907 7.739)"/><path d="M17.6 1.629h-1.064V.815a.815.815 0 1 0-1.629 0v.815H11.2V.815a.815.815 0 1 0-1.629 0v.815H5.906V.815a.815.815 0 0 0-1.629 0v.815H3.258A3.262 3.262 0 0 0 0 4.888V17.6a3.262 3.262 0 0 0 3.258 3.258H9.49a.815.815 0 1 0 0-1.629H3.258A1.631 1.631 0 0 1 1.629 17.6V4.888a1.631 1.631 0 0 1 1.629-1.63h1.019v.815a.815.815 0 1 0 1.629 0v-.815h3.665v.815a.815.815 0 1 0 1.629 0v-.815h3.706v.815a.815.815 0 1 0 1.629 0v-.815H17.6a1.631 1.631 0 0 1 1.629 1.629v4.644a.815.815 0 1 0 1.629 0V4.888A3.262 3.262 0 0 0 17.6 1.629z"/><path d="M15.925 11a4.928 4.928 0 1 0 4.928 4.928A4.928 4.928 0 0 0 15.925 11zm0 8.227a3.3 3.3 0 1 1 3.3-3.3 3.3 3.3 0 0 1-3.3 3.3z"/><path d="M17.111 15.111h-.367v-.855a.815.815 0 0 0-1.629 0v1.67a.815.815 0 0 0 .815.815h1.181a.815.815 0 0 0 0-1.629z"/><circle cx=".815" cy=".815" r=".815" transform="translate(11.364 7.739)"/><circle cx=".815" cy=".815" r=".815" transform="translate(7.82 11.282)"/><circle cx=".815" cy=".815" r=".815" transform="translate(4.277 7.739)"/><circle cx=".815" cy=".815" r=".815" transform="translate(4.277 11.282)"/><circle cx=".815" cy=".815" r=".815" transform="translate(4.277 14.826)"/><circle cx=".815" cy=".815" r=".815" transform="translate(7.82 14.826)"/><circle cx=".815" cy=".815" r=".815" transform="translate(7.82 7.739)"/></g><path d="M1117 38h30v30h-30z" fill="none"/><path d="M1120.479 43.676a.778.778 0 0 0 .122.692l1.092 1.352-1.087 1.353a.8.8 0 0 0-.028.9l.028.038 1.087 1.348-1.092 1.352a.8.8 0 0 0-.028.9l.028.038 1.087 1.351-1.087 1.354a.8.8 0 0 0-.028.9l.028.038 1.087 1.346-1.087 1.353a.8.8 0 0 0-.028.9l.028.033 1.087 1.352-1.087 1.359a.776.776 0 0 0-.122.686.48.48 0 0 0 .436.394h21.5c.253.006.464-.267.469-.61a.729.729 0 0 0-.15-.476l-1.087-1.353 1.087-1.352a.8.8 0 0 0 .028-.9l-.028-.038-1.087-1.348 1.087-1.352a.8.8 0 0 0 .028-.9l-.028-.038-1.087-1.348 1.087-1.352a.8.8 0 0 0 .028-.9l-.028-.038-1.087-1.348 1.087-1.352a.8.8 0 0 0 .028-.9l-.028-.038-1.087-1.352 1.087-1.352a.75.75 0 0 0 .15-.47.665.665 0 0 0-.033-.216.48.48 0 0 0-.436-.394h-21.505a.465.465 0 0 0-.431.391zm20 2.038a.751.751 0 0 0 .155.47l1.092 1.352-1.087 1.352a.8.8 0 0 0-.028.9l.028.038 1.087 1.352-1.087 1.352a.8.8 0 0 0-.028.9l.028.038 1.087 1.352-1.087 1.352a.8.8 0 0 0-.028.9l.028.038 1.087 1.359-1.092 1.352a.752.752 0 0 0-.155.47.7.7 0 0 0 .155.457l.581.7h-19.1l.576-.7a.7.7 0 0 0 .155-.457.752.752 0 0 0-.155-.47l-1.092-1.352 1.087-1.352a.8.8 0 0 0 .028-.9l-.028-.038-1.087-1.352 1.087-1.352a.8.8 0 0 0 .028-.9l-.028-.038-1.086-1.356 1.087-1.352a.8.8 0 0 0 .028-.9l-.028-.038-1.087-1.352 1.092-1.352a.753.753 0 0 0 .155-.47.7.7 0 0 0-.155-.457l-.581-.711h19.094l-.576.7a.7.7 0 0 0-.155.465z" fill="#fe817e"/><path d="M1134.809 49.883h-.688a3.077 3.077 0 0 0-.576-1.252h1.264a.624.624 0 1 0 0-1.248h-6.24a.624.624 0 1 0 0 1.248h2.5a1.868 1.868 0 0 1 1.753 1.252h-4.253a.624.624 0 1 0 0 1.248h4.253a1.868 1.868 0 0 1-1.757 1.243h-2.5a.624.624 0 0 0-.577.863.593.593 0 0 0 .136.2l4.99 4.99a.624.624 0 1 0 .883-.881l-3.926-3.924h.99a3.123 3.123 0 0 0 3.056-2.5h.688a.624.624 0 1 0 0-1.248z" fill="#fe817e"/><path d="M1263 38h30v30h-30z" fill="none"/><path d="M1266.479 43.676a.778.778 0 0 0 .122.692l1.092 1.352-1.087 1.353a.8.8 0 0 0-.028.9l.028.038 1.087 1.348-1.092 1.352a.8.8 0 0 0-.028.9l.028.038 1.087 1.351-1.087 1.354a.8.8 0 0 0-.028.9l.028.038 1.087 1.346-1.087 1.353a.8.8 0 0 0-.028.9l.028.033 1.087 1.352-1.087 1.359a.776.776 0 0 0-.122.686.48.48 0 0 0 .436.394h21.5c.253.006.464-.267.469-.61a.729.729 0 0 0-.15-.476l-1.087-1.353 1.087-1.352a.8.8 0 0 0 .028-.9l-.028-.038-1.087-1.348 1.087-1.352a.8.8 0 0 0 .028-.9l-.028-.038-1.087-1.348 1.087-1.352a.8.8 0 0 0 .028-.9l-.028-.038-1.087-1.348 1.087-1.352a.8.8 0 0 0 .028-.9l-.028-.038-1.087-1.352 1.087-1.352a.75.75 0 0 0 .15-.47.665.665 0 0 0-.033-.216.48.48 0 0 0-.436-.394h-21.505a.465.465 0 0 0-.431.391zm20 2.038a.751.751 0 0 0 .155.47l1.092 1.352-1.087 1.352a.8.8 0 0 0-.028.9l.028.038 1.087 1.352-1.087 1.352a.8.8 0 0 0-.028.9l.028.038 1.087 1.352-1.087 1.352a.8.8 0 0 0-.028.9l.028.038 1.087 1.359-1.092 1.352a.752.752 0 0 0-.155.47.7.7 0 0 0 .155.457l.581.7h-19.1l.576-.7a.7.7 0 0 0 .155-.457.752.752 0 0 0-.155-.47l-1.092-1.352 1.087-1.352a.8.8 0 0 0 .028-.9l-.028-.038-1.087-1.352 1.087-1.352a.8.8 0 0 0 .028-.9l-.028-.038-1.086-1.356 1.087-1.352a.8.8 0 0 0 .028-.9l-.028-.038-1.087-1.352 1.092-1.352a.753.753 0 0 0 .155-.47.7.7 0 0 0-.155-.457l-.581-.711h19.094l-.576.7a.7.7 0 0 0-.155.465z"/><path d="M1280.809 49.883h-.688a3.077 3.077 0 0 0-.576-1.252h1.264a.624.624 0 1 0 0-1.248h-6.24a.624.624 0 1 0 0 1.248h2.5a1.868 1.868 0 0 1 1.753 1.252h-4.253a.624.624 0 1 0 0 1.248h4.253a1.868 1.868 0 0 1-1.757 1.243h-2.5a.624.624 0 0 0-.577.863.6.6 0 0 0 .136.2l4.99 4.99a.624.624 0 1 0 .883-.881l-3.926-3.924h.99a3.123 3.123 0 0 0 3.056-2.5h.688a.624.624 0 1 0 0-1.248z"/><path d="M1012 38h30v30h-30z" fill="none"/><path d="M1036.25 62h-18.5a2.752 2.752 0 0 1-2.75-2.75v-12.5a2.752 2.752 0 0 1 2.75-2.75h18.5a2.752 2.752 0 0 1 2.75 2.75v12.5a2.752 2.752 0 0 1-2.75 2.75zm-18.5-16.5a1.252 1.252 0 0 0-1.25 1.25v12.5a1.252 1.252 0 0 0 1.25 1.25h18.5a1.252 1.252 0 0 0 1.25-1.25v-12.5a1.252 1.252 0 0 0-1.25-1.25zm0 0" fill="#fe817e"/><path d="M1022.5 53a2.5 2.5 0 1 1 2.5-2.5 2.5 2.5 0 0 1-2.5 2.5zm0-3.5a1 1 0 1 0 1 1 1 1 0 0 0-1-1zm3.75 8.5a.75.75 0 0 1-.75-.75v-.5a1.252 1.252 0 0 0-1.25-1.25h-3.5a1.252 1.252 0 0 0-1.25 1.25v.5a.75.75 0 0 1-1.5 0v-.5a2.752 2.752 0 0 1 2.75-2.75h3.5a2.752 2.752 0 0 1 2.75 2.75v.5a.75.75 0 0 1-.75.75zm9-8h-5.5a.75.75 0 1 1 0-1.5h5.5a.75.75 0 0 1 0 1.5zm0 4h-5.5a.75.75 0 0 1 0-1.5h5.5a.75.75 0 0 1 0 1.5zm0 4h-5.5a.75.75 0 0 1 0-1.5h5.5a.75.75 0 0 1 0 1.5zm0 0" fill="#fe817e"/><path d="M1158 38h30v30h-30z" fill="none"/><path d="M1182.25 62h-18.5a2.752 2.752 0 0 1-2.75-2.75v-12.5a2.752 2.752 0 0 1 2.75-2.75h18.5a2.752 2.752 0 0 1 2.75 2.75v12.5a2.752 2.752 0 0 1-2.75 2.75zm-18.5-16.5a1.252 1.252 0 0 0-1.25 1.25v12.5a1.252 1.252 0 0 0 1.25 1.25h18.5a1.252 1.252 0 0 0 1.25-1.25v-12.5a1.252 1.252 0 0 0-1.25-1.25zm0 0"/><path d="M1168.5 53a2.5 2.5 0 1 1 2.5-2.5 2.5 2.5 0 0 1-2.5 2.5zm0-3.5a1 1 0 1 0 1 1 1 1 0 0 0-1-1zm3.75 8.5a.75.75 0 0 1-.75-.75v-.5a1.252 1.252 0 0 0-1.25-1.25h-3.5a1.252 1.252 0 0 0-1.25 1.25v.5a.75.75 0 0 1-1.5 0v-.5a2.752 2.752 0 0 1 2.75-2.75h3.5a2.752 2.752 0 0 1 2.75 2.75v.5a.75.75 0 0 1-.75.75zm9-8h-5.5a.75.75 0 1 1 0-1.5h5.5a.75.75 0 0 1 0 1.5zm0 4h-5.5a.75.75 0 0 1 0-1.5h5.5a.75.75 0 0 1 0 1.5zm0 4h-5.5a.75.75 0 0 1 0-1.5h5.5a.75.75 0 0 1 0 1.5zm0 0"/><path d="M1316 45a9.971 9.971 0 1 1-.057 0z" fill="#3bb54a"/><path d="m1321.535 52.245-7.1 7.1-3.977-3.949 1.619-1.591 2.358 2.332 5.483-5.483z" fill="#fff"/><path d="M1349 45a9.97 9.97 0 1 1-.057 0z" fill="#dcdcdc"/><path d="m1354.535 52.245-7.1 7.1-3.977-3.949 1.619-1.591 2.358 2.332 5.483-5.483z" fill="#fff"/><path d="M1382 45a9.971 9.971 0 1 1-.057 0z" fill="#ff5f5d"/><path d="m1386.536 52.245-7.1 7.1-1.637-1.684 7.12-7.01z" fill="#fff"/><path d="m1384.925 59.366-7.1-7.1 1.684-1.637 7.01 7.12z" fill="#fff"/><path d="M1404 40h30v30h-30z" fill="none"/><path d="M1423.175 51.125h-1.433a5.93 5.93 0 0 0-.62-1.5h2.053v.011a1.07 1.07 0 0 0 0-2.139h-8.351a1.07 1.07 0 0 0 0 2.139h2.4a2.568 2.568 0 0 1 2.278 1.5h-4.673a1.07 1.07 0 0 0 0 2.139h4.673a3.46 3.46 0 0 1-.5.738 2.5 2.5 0 0 1-1.775.759h-2.4a1.044 1.044 0 0 0-.738 1.807l5.977 5.635a1.07 1.07 0 0 0 1.476-1.55l-4.042-3.817a4.581 4.581 0 0 0 3-1.358 4.52 4.52 0 0 0 1.24-2.224h1.433a1.07 1.07 0 1 0 0-2.139z"/><path d="M1512 41h-30v30h30z" fill="none"/><path d="m1490.567 55.318 11.505-11.474a.964.964 0 0 1 1.362 1.366L1492.614 56l10.821 10.79a.964.964 0 0 1-1.362 1.365l-11.506-11.472a.964.964 0 0 1 0-1.365z"/><g><path d="M1443 40h30v30h-30z" fill="none"/><path d="M1462.175 51.125h-1.433a5.93 5.93 0 0 0-.62-1.5h2.053v.011a1.07 1.07 0 0 0 0-2.139h-8.351a1.07 1.07 0 0 0 0 2.139h2.4a2.568 2.568 0 0 1 2.278 1.5h-4.673a1.07 1.07 0 0 0 0 2.139h4.673a3.46 3.46 0 0 1-.5.738 2.5 2.5 0 0 1-1.775.759h-2.4a1.044 1.044 0 0 0-.738 1.807l5.977 5.635a1.07 1.07 0 0 0 1.476-1.55l-4.042-3.817a4.581 4.581 0 0 0 3-1.358 4.52 4.52 0 0 0 1.24-2.224h1.433a1.07 1.07 0 1 0 0-2.139z" fill="#888"/></g><g><path d="M1521 41h30v30h-30z" fill="none"/><path d="m1542.434 55.318-11.505-11.474a.964.964 0 0 0-1.362 1.366l10.82 10.79-10.821 10.79a.964.964 0 0 0 1.362 1.365l11.506-11.472a.964.964 0 0 0 0-1.365z"/></g></svg>